<?xml version="1.0" encoding="utf-8"?>
<!-- Uploaded to: SVG Repo, www.svgrepo.com, Generator: SVG Repo Mixer Tools -->
<svg width="800px" height="800px" viewBox="0 0 1024 1024" class="icon"  version="1.1" xmlns="http://www.w3.org/2000/svg"><path d="M591.261923 80.062549h-40.8319V38.430023C550.430023 26.420641 540.822518 16.01251 528.01251 16.01251h-18.414386c-12.810008 0-22.417514 10.408131-22.417514 22.417513V80.062549h-41.632526c-12.810008 0-22.417514 10.408131-22.417513 22.417514v20.015637c0 12.810008 10.408131 22.417514 22.417513 22.417513h41.632526V240.187647h63.249413V145.713839h40.8319c12.810008 0 22.417514-10.408131 22.417514-22.417514v-20.015637c0.800625-12.810008-9.607506-23.218139-22.417514-23.218139z" fill="#7D8792" /><path d="M566.442533 257.000782H471.1681V161.726349h-25.620016c-21.616888 0-38.430023-17.613761-38.430023-38.430024v-20.015637c0-21.616888 17.613761-38.430023 38.430023-38.430023h25.620016V38.430023c0-21.616888 17.613761-38.430023 38.430024-38.430023h18.414386c21.616888 0 38.430023 17.613761 38.430023 38.430023V64.050039h24.81939c21.616888 0 38.430023 17.613761 38.430024 38.430024v20.015637c0 21.616888-17.613761 38.430023-38.430024 38.430023h-24.81939v96.075059z m-63.249413-32.02502h31.224394V129.701329h56.844409c4.003127 0 6.405004-3.202502 6.405004-6.405004v-20.015637c0-4.003127-3.202502-6.405004-6.405004-6.405004v-16.01251 16.01251h-56.844409V38.430023c0-4.003127-3.202502-6.405004-6.405004-6.405003h-18.414386c-4.003127 0-6.405004 3.202502-6.405004 6.405003V96.075059h-57.645036c-4.003127 0-6.405004 3.202502-6.405003 6.405004v20.015637c0 4.003127 3.202502 6.405004 6.405003 6.405004h57.645036v96.075058z" fill="#131313" /><path d="M928.325254 913.513683H668.12197l84.065677-324.253323h92.071931z" fill="#7D8792" /><path d="M949.141517 929.526192H647.305708l92.071931-356.278342h116.891321l92.872557 356.278342z m-260.203284-32.025019h218.570758l-76.059421-292.228304h-67.252541l-75.258796 292.228304z" fill="#131313" /><path d="M801.025801 511.599687m-77.660672 0a77.660672 77.660672 0 1 0 155.321345 0 77.660672 77.660672 0 1 0-155.321345 0Z" fill="#7D8792" /><path d="M801.025801 604.472244c-51.240031 0-93.673182-41.632525-93.673182-93.673182 0-51.240031 41.632525-93.673182 93.673182-93.673182s93.673182 41.632525 93.673183 93.673182c-0.800625 52.040657-42.433151 93.673182-93.673183 93.673182z m0-154.520719c-33.626271 0-61.648163 27.221267-61.648162 61.648162 0 33.626271 27.221267 61.648163 61.648162 61.648163s61.648163-27.221267 61.648163-61.648163c-0.800625-34.426896-28.021892-61.648163-61.648163-61.648162z" fill="#131313" /><path d="M735.374511 588.459734h132.903831c17.613761 0 32.825645 14.411259 32.825645 32.825645v1.601251c0 17.613761-14.411259 32.825645-32.825645 32.825645H735.374511c-17.613761 0-32.825645-14.411259-32.825645-32.825645v-1.601251c0.800625-17.613761 15.211884-32.825645 32.825645-32.825645z" fill="#C2CDDC" /><path d="M869.078968 671.724785H735.374511c-26.420641 0-48.838155-21.616888-48.838154-48.838155v-1.601251c0-26.420641 21.616888-48.838155 48.838154-48.838155H869.078968c26.420641 0 48.838155 21.616888 48.838155 48.838155v1.601251c-0.800625 27.221267-22.417514 48.838155-48.838155 48.838155z m-133.704457-66.451916c-8.80688 0-16.813135 7.205629-16.813135 16.813136v1.601251c0 8.80688 7.205629 16.813135 16.813135 16.813135H869.078968c8.80688 0 16.813135-7.205629 16.813135-16.813135v-1.601251c0-8.80688-7.205629-16.813135-16.813135-16.813136H735.374511zM685.735731 830.248632h224.975762v32.025019H685.735731z" fill="#131313" /><path d="M555.233776 913.513683H949.141517c12.009382 0 22.417514 9.607506 22.417513 22.417513v49.638781c0 12.009382-9.607506 22.417514-22.417513 22.417513H555.233776v-94.473807z" fill="#C2CDDC" /><path d="M949.942142 1024H539.221267v-126.498827H949.141517c20.816263 0 38.430023 16.813135 38.430023 38.430023v49.638781c0 21.616888-16.813135 38.430023-37.629398 38.430023z m-378.695856-32.02502H949.141517c3.202502 0 6.405004-2.401876 6.405004-6.405003v-49.638781c0-3.202502-2.401876-6.405004-6.405004-6.405004H571.246286v62.448788z" fill="#131313" /><path d="M95.674746 913.513683h260.203284L271.812353 589.26036H179.740422z" fill="#7D8792" /><path d="M376.694292 929.526192H74.858483l92.071931-356.278342H284.622361l92.071931 356.278342z m-260.203283-32.025019h218.570758l-76.059421-292.228304h-67.252541L116.491009 897.501173z" fill="#131313" /><path d="M223.774824 511.599687m-77.660672 0a77.660672 77.660672 0 1 0 155.321344 0 77.660672 77.660672 0 1 0-155.321344 0Z" fill="#7D8792" /><path d="M223.774824 604.472244c-51.240031 0-93.673182-41.632525-93.673182-93.673182 0-51.240031 41.632525-93.673182 93.673182-93.673182S316.647381 459.55903 316.647381 511.599687c0 51.240031-41.632525 92.872557-92.872557 92.872557z m0-154.520719c-33.626271 0-61.648163 27.221267-61.648163 61.648162 0 33.626271 27.221267 61.648163 61.648163 61.648163s61.648163-27.221267 61.648163-61.648163c-0.800625-34.426896-28.021892-61.648163-61.648163-61.648162z" fill="#131313" /><path d="M288.625489 655.712275H155.721658c-17.613761 0-32.825645-14.411259-32.825645-32.825645v-1.601251c0-17.613761 14.411259-32.825645 32.825645-32.825645h132.903831c17.613761 0 32.825645 14.411259 32.825645 32.825645v1.601251c-0.800625 18.414386-15.211884 32.825645-32.825645 32.825645z" fill="#C2CDDC" /><path d="M288.625489 671.724785H155.721658c-26.420641 0-48.838155-21.616888-48.838155-48.838155v-1.601251c0-26.420641 21.616888-48.838155 48.838155-48.838155h132.903831c26.420641 0 48.838155 21.616888 48.838154 48.838155v1.601251c-0.800625 27.221267-22.417514 48.838155-48.838154 48.838155z m-132.903831-66.451916c-8.80688 0-16.813135 7.205629-16.813136 16.813136v1.601251c0 8.80688 7.205629 16.813135 16.813136 16.813135h132.903831c8.80688 0 16.813135-7.205629 16.813135-16.813135v-1.601251c0-8.80688-7.205629-16.813135-16.813135-16.813136H155.721658z" fill="#131313" /><path d="M113.288507 830.248632h225.776387v32.025019H113.288507z" fill="#131313" /><path d="M468.766224 1007.98749H74.858483c-12.009382 0-22.417514-9.607506-22.417513-22.417513v-49.638781c0-12.009382 9.607506-22.417514 22.417513-22.417513H468.766224v94.473807z" fill="#C2CDDC" /><path d="M484.778733 1024H74.858483c-20.816263 0-38.430023-16.813135-38.430023-37.629398V936.731822c0-20.816263 16.813135-38.430023 38.430023-38.430024H484.778733v125.698202zM74.858483 929.526192c-3.202502 0-6.405004 2.401876-6.405004 6.405004v49.638781c0 3.202502 2.401876 6.405004 6.405004 6.405003H452.753714v-62.448788H74.858483z" fill="#131313" /><path d="M590.461298 589.26036H440.744332c-4.803753 111.286943-37.629398 218.570758-95.274434 313.845191 97.67631 84.065676 241.788898 84.065676 339.465208 0-56.84441-94.473808-89.670055-202.558249-94.473808-313.845191z" fill="#7D8792" /><path d="M516.003127 982.367475c-64.050039 0-128.100078-22.417514-180.140735-67.252541l-10.408131-8.806881 7.20563-12.009382c56.043784-92.872557 88.068804-198.555121 92.872556-306.639562l0.800626-15.211885h179.340109l0.800626 15.211885c4.803753 108.084441 36.828772 213.767005 92.872556 306.639562l7.20563 12.009382-10.408132 8.806881c-52.841282 45.635653-116.090696 67.252541-180.140735 67.252541z m-148.91634-82.464426c88.068804 68.053167 209.763878 68.053167 297.832681 0-52.040657-89.670055-82.464425-191.349492-89.670054-294.63018H455.956216c-6.405004 103.280688-37.629398 204.960125-88.869429 294.63018z" fill="#131313" /><path d="M648.106333 284.222048C571.246286 222.573886 459.959343 227.377639 388.703675 296.231431c22.417514 52.040657 37.629398 107.283815 45.635653 163.327599H596.866302c8.80688-60.847537 26.420641-120.093823 51.240031-175.336982z" fill="#7D8792" /><path d="M610.476935 475.57154H420.728694l-2.401876-13.610633c-8.006255-54.442533-23.218139-108.084441-44.835028-159.324472l-4.003127-10.408132 8.006255-8.006255c76.860047-74.45817 196.95387-80.062549 280.218921-13.610633l9.607506 8.006255-4.803753 11.208757C637.698202 344.26896 620.885066 401.913995 612.878812 461.160281l-2.401877 14.411259z m-162.526974-32.025019h134.505082c8.80688-52.841282 24.018765-104.881939 44.835027-153.720094-67.252541-46.436278-158.523847-42.433151-220.172009 11.208757 19.215012 45.635653 32.825645 93.673182 40.8319 142.511337z" fill="#131313" /><path d="M589.660672 558.035966c0-32.825645 2.401876-65.65129 7.20563-98.476936H434.339328c4.803753 32.825645 7.205629 65.65129 7.205629 98.476936 0 10.408131 0 20.816263-0.800625 31.224394h148.91634v-31.224394z" fill="#C2CDDC" /><path d="M607.274433 605.272869H423.931196l1.601251-17.61376c0.800625-9.607506 0.800625-20.015637 0.800626-30.423769 0-32.02502-2.401876-64.850665-7.20563-96.075059l-2.401876-18.414386h199.355747l-3.202502 19.215012c-4.803753 32.02502-7.205629 64.050039-7.20563 96.075059 0 9.607506 0 19.215012 0.800626 30.423768l0.800625 16.813135z m-149.716966-32.025019H572.847537v-15.211884c0-27.221267 1.601251-55.243159 4.803753-82.464426H452.753714c3.202502 27.221267 4.803753 55.243159 4.803753 82.464426 0.800625 4.803753 0.800625 10.408131 0 15.211884z" fill="#131313" /><path d="M440.744332 459.55903h155.321344c17.613761 0 32.825645 14.411259 32.825645 32.825646 0 17.613761-14.411259 32.825645-32.825645 32.825645H440.744332c-17.613761 0-32.825645-14.411259-32.825646-32.825645s14.411259-32.825645 32.825646-32.825646z" fill="#C2CDDC" /><path d="M596.065676 540.422205H440.744332c-26.420641 0-48.838155-21.616888-48.838155-48.838155 0-26.420641 21.616888-48.838155 48.838155-48.838155h155.321344c26.420641 0 48.838155 21.616888 48.838155 48.838155 0 27.221267-21.616888 48.838155-48.838155 48.838155z m-155.321344-64.850665c-8.80688 0-16.813135 7.205629-16.813136 16.813136s7.205629 16.813135 16.813136 16.813135h155.321344c8.80688 0 16.813135-7.205629 16.813136-16.813135s-7.205629-16.813135-16.813136-16.813136H440.744332z" fill="#131313" /><path d="M328.656763 881.488663H700.947615c9.607506 0 17.613761 8.006255 17.613761 17.613761v42.433151H311.043002v-42.433151c0-9.607506 8.006255-17.613761 17.613761-17.613761z" fill="#C2CDDC" /><path d="M734.573886 957.548084H295.030493v-58.44566c0-18.414386 15.211884-33.626271 33.62627-33.626271H700.947615c18.414386 0 33.626271 15.211884 33.626271 33.626271v58.44566z m-407.518374-32.025019h375.493354v-26.420641c0-0.800625-0.800625-1.601251-1.601251-1.601251H328.656763c-0.800625 0-1.601251 0.800625-1.601251 1.601251v26.420641z" fill="#131313" /><path d="M291.827991 941.535575h445.147771c11.208757 0 20.015637 8.80688 20.015638 20.015637v46.436278H271.812353v-46.436278c0-10.408131 9.607506-20.015637 20.015638-20.015637z" fill="#C2CDDC" /><path d="M773.804535 1024H255.799844v-62.448788c0-20.015637 16.01251-36.028147 36.028147-36.028147h445.147771c20.015637 0 36.028147 16.01251 36.028147 36.028147v62.448788z m-485.979672-32.02502H740.97889v-30.423768c0-2.401876-1.601251-4.003127-4.003128-4.003128H291.827991c-2.401876 0-4.003127 1.601251-4.003128 4.003128v30.423768z" fill="#131313" /></svg>